<svg width="26" height="26" viewBox="0 0 26 26" fill="none" xmlns="http://www.w3.org/2000/svg">
<path d="M2.87663 15.9606C1.84035 14.9242 1.32221 14.4061 1.12807 13.8086C0.957311 13.2831 0.957311 12.717 1.12807 12.1914C1.32221 11.5939 1.84035 11.0757 2.87663 10.0395L10.0395 2.87662C11.0758 1.84035 11.5939 1.3222 12.1914 1.12808C12.7169 0.957308 13.2831 0.957308 13.8086 1.12808C14.4062 1.3222 14.9243 1.84035 15.9605 2.87662L23.1234 10.0395C24.1597 11.0757 24.6778 11.5939 24.8719 12.1914C25.0427 12.717 25.0427 13.2831 24.8719 13.8086C24.6778 14.4061 24.1597 14.9242 23.1234 15.9606L15.9605 23.1233C14.9243 24.1597 14.4062 24.6778 13.8086 24.8719C13.2831 25.0427 12.7169 25.0427 12.1914 24.8719C11.5939 24.6778 11.0758 24.1597 10.0395 23.1233L2.87663 15.9606Z" stroke="black" stroke-linecap="round" stroke-linejoin="round"/>
</svg>
