<svg width="24" height="24" viewBox="0 0 24 24" fill="none" xmlns="http://www.w3.org/2000/svg">
<path d="M13.5274 19.1931C13.8879 19.5536 14.4724 19.5536 14.8329 19.1931C15.1934 18.8326 15.1934 18.2481 14.8329 17.8876L13.5274 19.1931ZM6.11236 9.16716C5.75188 8.80668 5.16741 8.80668 4.80693 9.16716C4.44645 9.52766 4.44645 10.1121 4.80693 10.4726L6.11236 9.16716ZM17.0129 17.0129C17.3734 16.6524 17.3734 16.0681 17.0129 15.7076C16.6524 15.3471 16.0681 15.3471 15.7076 15.7076L17.0129 17.0129ZM19.9601 11.4534C19.6011 11.8153 19.6033 12.3998 19.9653 12.7588C20.3271 13.1179 20.9116 13.1156 21.2706 12.7537L19.9601 11.4534ZM4.65894 11.926L11.926 4.65894L10.6206 3.35351L3.35351 10.6206L4.65894 11.926ZM4.65894 19.341C3.61278 18.2949 2.8952 17.5745 2.42773 16.9618C1.97652 16.3705 1.84615 15.989 1.84615 15.6335H0C0 16.5551 0.383495 17.326 0.96 18.0817C1.52026 18.816 2.34425 19.6372 3.35351 20.6465L4.65894 19.341ZM3.35351 10.6206C2.34425 11.6299 1.52026 12.4511 0.96 13.1854C0.383495 13.9409 0 14.712 0 15.6335H1.84615C1.84615 15.2779 1.97652 14.8966 2.42773 14.3052C2.8952 13.6926 3.61278 12.9722 4.65894 11.926L3.35351 10.6206ZM12.074 19.341C11.0278 20.3872 10.3074 21.1049 9.69477 21.5723C9.1034 22.0235 8.72203 22.1538 8.36647 22.1538V24C9.28799 24 10.0591 23.6165 10.8146 23.04C11.5489 22.4798 12.3702 21.6558 13.3794 20.6465L12.074 19.341ZM3.35351 20.6465C4.36278 21.6558 5.18401 22.4798 5.91831 23.04C6.67392 23.6165 7.44495 24 8.36647 24V22.1538C8.01091 22.1538 7.62954 22.0235 7.03815 21.5723C6.42547 21.1049 5.70512 20.3872 4.65894 19.341L3.35351 20.6465ZM19.341 4.65894C20.3872 5.70512 21.1049 6.42547 21.5723 7.03815C22.0235 7.62954 22.1538 8.01091 22.1538 8.36647H24C24 7.44495 23.6165 6.67392 23.04 5.91831C22.4798 5.18401 21.6558 4.36278 20.6465 3.35351L19.341 4.65894ZM20.6465 3.35351C19.6372 2.34425 18.816 1.52026 18.0817 0.96C17.326 0.383495 16.5551 0 15.6335 0V1.84615C15.989 1.84615 16.3705 1.97652 16.9618 2.42773C17.5745 2.8952 18.2949 3.61278 19.341 4.65894L20.6465 3.35351ZM11.926 4.65894C12.9722 3.61278 13.6926 2.8952 14.3052 2.42773C14.8966 1.97652 15.2779 1.84615 15.6335 1.84615V0C14.712 0 13.9409 0.383495 13.1854 0.96C12.4511 1.52026 11.6299 2.34425 10.6206 3.35351L11.926 4.65894ZM14.8329 17.8876L6.11236 9.16716L4.80693 10.4726L13.5274 19.1931L14.8329 17.8876ZM15.7076 15.7076L12.074 19.341L13.3794 20.6465L17.0129 17.0129L15.7076 15.7076ZM21.2706 12.7537C22.0839 11.934 22.755 11.2319 23.2172 10.5728C23.6951 9.89157 24 9.18783 24 8.36647H22.1538C22.1538 8.68622 22.0485 9.02409 21.7058 9.51262C21.3476 10.0234 20.7878 10.6192 19.9601 11.4534L21.2706 12.7537Z" fill="black"/>
<path d="M8.30762 23.0769H23.0768" stroke="black" stroke-linecap="round"/>
</svg>
