<svg width="26" height="26" viewBox="0 0 26 26" fill="none" xmlns="http://www.w3.org/2000/svg">
<path d="M16.3958 18.9062L13.8937 16.4251C12.6864 15.2276 12.0826 14.629 11.3899 14.4101C10.7806 14.2177 10.1257 14.2247 9.52072 14.4304C8.83282 14.6642 8.24221 15.2758 7.06102 16.4989L1.06613 22.4201M16.3958 18.9062L16.9079 18.3985C18.1168 17.1997 18.7212 16.6003 19.4148 16.3815C20.0247 16.189 20.68 16.1966 21.2854 16.403C21.9736 16.6376 22.5642 17.2508 23.7451 18.4771L25 19.7401M16.3958 18.9062L22.4125 24.9347M1.06613 22.4201C1.11268 22.7981 1.19194 23.097 1.32698 23.362C1.61459 23.9265 2.07354 24.3854 2.63803 24.673C3.27976 25 4.11983 25 5.8 25H20.2C21.1814 25 21.8764 25 22.4125 24.9347M1.06613 22.4201C1 21.8831 1 21.1862 1 20.2V5.8C1 4.11985 1 3.27976 1.32698 2.63803C1.61459 2.07354 2.07354 1.61459 2.63803 1.32698C3.27976 1 4.11983 1 5.8 1H20.2C21.8801 1 22.7203 1 23.362 1.32698C23.9265 1.61459 24.3854 2.07354 24.673 2.63803C25 3.27976 25 4.11985 25 5.8V19.7401M25 19.7401V20.2C25 21.8801 25 22.7203 24.673 23.362C24.3854 23.9265 23.9265 24.3854 23.362 24.673C23.0952 24.809 22.7939 24.8884 22.4125 24.9347M20.5 8.49984C20.5 10.1568 19.1569 11.4998 17.5 11.4998C15.8431 11.4998 14.5 10.1568 14.5 8.49984C14.5 6.84298 15.8431 5.49983 17.5 5.49983C19.1569 5.49983 20.5 6.84298 20.5 8.49984Z" stroke="black" stroke-linecap="round" stroke-linejoin="round"/>
</svg>
