<svg width="20" height="20" viewBox="0 0 20 20" fill="none" xmlns="http://www.w3.org/2000/svg">
<path d="M10.5266 10.5324L18 18M17.0117 7.81874L10.8083 10.3731C10.6945 10.4199 10.6377 10.4434 10.5895 10.4783C10.5468 10.5093 10.5093 10.5468 10.4783 10.5895C10.4434 10.6377 10.4199 10.6945 10.3731 10.8083L7.81874 17.0117C7.56565 17.6264 7.43911 17.9337 7.2675 18.0169C7.11884 18.0889 6.94417 18.0829 6.80082 18.0008C6.63535 17.906 6.53025 17.5907 6.32005 16.9601L1.50599 2.51792C1.34314 2.02937 1.26172 1.7851 1.31964 1.62265C1.37005 1.48129 1.48129 1.37005 1.62265 1.31964C1.7851 1.26172 2.02937 1.34314 2.51792 1.50599L16.9601 6.32005C17.5907 6.53025 17.906 6.63535 18.0008 6.80082C18.0829 6.94417 18.0889 7.11884 18.0169 7.2675C17.9337 7.43911 17.6264 7.56565 17.0117 7.81874Z" stroke="black" stroke-width="1.92" stroke-linecap="round" stroke-linejoin="round"/>
</svg>
