<svg width="24" height="24" viewBox="0 0 24 24" fill="none" xmlns="http://www.w3.org/2000/svg">
<path d="M23.3357 22.7456H22.3635L12.6142 0.388461C12.5117 0.153433 12.2692 0 12 0C11.7308 0 11.4883 0.153358 11.3858 0.388461L1.63646 22.7456H0.664225C0.297436 22.7456 0 23.0263 0 23.3728C0 23.7192 0.297356 24 0.664225 24H3.49819C3.86498 24 4.16241 23.7193 4.16241 23.3728C4.16241 23.0264 3.86506 22.7456 3.49819 22.7456H3.07302L5.44337 17.3101H15.0142L17.3846 22.7456H16.9594C16.5926 22.7456 16.2952 23.0263 16.2952 23.3728C16.2952 23.7192 16.5925 24 16.9594 24H23.3358C23.7026 24 24 23.7193 24 23.3728C23.9999 23.0263 23.7026 22.7456 23.3357 22.7456ZM5.99035 16.0557L10.2288 6.33608L14.4673 16.0557H5.99035ZM18.8212 22.7456L10.947 4.68899L12 2.27451L20.927 22.7456H18.8212Z" fill="black" stroke="black" stroke-width="0.00064"/>
</svg>
